
<svg width="100%" height="100%" viewBox="0 0 128 128" version="1.1" xmlns="http://www.w3.org/2000/svg" xmlns:xlink="http://www.w3.org/1999/xlink" xml:space="preserve" xmlns:serif="http://www.serif.com/" style="fill-rule:evenodd;clip-rule:evenodd;stroke-linejoin:round;stroke-miterlimit:2;">
    <path d="M127,1.41L2,1.41L2,126.41L127,126.41L127,1.41ZM86.635,111.577C70.817,114.555 51.303,114.209 39.734,112.299C39.734,112.299 42.104,114.26 54.283,115.044C72.814,116.229 101.277,114.385 101.951,105.617C101.951,105.617 100.656,108.94 86.635,111.577ZM95.43,100.375C95.43,100.375 98.341,102.774 92.226,104.629C80.599,108.151 43.825,109.213 33.61,104.77C29.941,103.171 36.825,100.956 38.991,100.488C41.25,100 42.538,100.089 42.538,100.089C38.456,97.214 16.145,105.737 31.209,108.181C72.284,114.84 106.084,105.182 95.43,100.375ZM50.492,92.041C34.669,96.462 60.119,105.594 80.268,96.962C76.968,95.679 74.601,94.199 74.601,94.199C65.616,95.898 61.449,96.031 53.294,95.1C46.563,94.329 50.492,92.041 50.492,92.041ZM77.856,83.417C65.947,85.708 59.069,85.635 50.356,84.735C43.62,84.039 48.029,80.775 48.029,80.775C30.603,86.559 57.731,93.122 82.087,85.998C79.499,85.087 77.856,83.417 77.856,83.417ZM85.938,87.853C85.848,88.093 85.552,88.361 85.552,88.361C111.336,81.583 101.856,64.468 89.528,68.801C88.447,69.183 87.879,70.073 87.879,70.073C87.879,70.073 88.563,69.798 90.087,69.479C96.318,68.181 105.248,77.822 85.938,87.853ZM81.313,75.368C83.288,74.02 86.015,72.85 86.015,72.85C86.015,72.85 78.246,74.239 70.505,74.89C61.029,75.684 50.864,75.841 45.761,75.158C33.681,73.543 52.384,69.099 52.384,69.099C52.384,69.099 45.12,68.608 36.189,72.929C25.625,78.037 62.316,80.365 81.313,75.368ZM87.188,33.475C87.189,33.475 51.958,42.271 68.784,61.661C73.75,67.378 67.481,72.519 67.481,72.519C67.481,72.519 80.086,66.013 74.298,57.863C68.891,50.265 64.745,46.491 87.188,33.475ZM64.149,68.914C60.345,60.316 47.446,52.794 64.155,39.597C84.99,23.152 74.298,12.453 74.298,12.453C78.611,29.443 59.086,34.576 52.039,45.157C47.24,52.367 54.395,60.114 64.149,68.914Z" fill="#F0EDCC"/>
</svg>
